<svg width="900" height="228" viewBox="0 0 900 228" fill="none" xmlns="http://www.w3.org/2000/svg">
    <path d="M0 36.0001L21.5 41.2001C43 46.3001 86 56.7001 128.8 53.0001C171.7 49.3001 214.3 31.7001 257.2 27.5001C300 23.3001 343 32.7001 385.8 40.0001C428.7 47.3001 471.3 52.7001 514.2 52.5001C557 52.3001 600 46.7001 642.8 35.2001C685.7 23.7001 728.3 6.30009 771.2 2.00009C814 -2.29991 857 6.30011 878.5 10.7001L900 15.0001V228H878.5C857 228 814 228 771.2 228C728.3 228 685.7 228 642.8 228C600 228 557 228 514.2 228C471.3 228 428.7 228 385.8 228C343 228 300 228 257.2 228C214.3 228 171.7 228 128.8 228C86 228 43 228 21.5 228H0V36.0001Z" fill="#b2dfdb"/>
    <path d="M0 66.9999L21.5 70.2999C43 73.6999 86 80.2999 128.8 72.6999C171.7 64.9999 214.3 42.9999 257.2 33.7999C300 24.6999 343 28.2999 385.8 41.2999C428.7 54.2999 471.3 76.6999 514.2 78.2999C557 79.9999 600 60.9999 642.8 57.2999C685.7 53.6999 728.3 65.2999 771.2 73.4999C814 81.6999 857 86.2999 878.5 88.6999L900 90.9999V228H878.5C857 228 814 228 771.2 228C728.3 228 685.7 228 642.8 228C600 228 557 228 514.2 228C471.3 228 428.7 228 385.8 228C343 228 300 228 257.2 228C214.3 228 171.7 228 128.8 228C86 228 43 228 21.5 228H0V66.9999Z" fill="#80cbc4"/>
    <path d="M0 98L21.5 96.2C43 94.3 86 90.7 128.8 90C171.7 89.3 214.3 91.7 257.2 88.7C300 85.7 343 77.3 385.8 77.8C428.7 78.3 471.3 87.7 514.2 93C557 98.3 600 99.7 642.8 99.5C685.7 99.3 728.3 97.7 771.2 102.5C814 107.3 857 118.7 878.5 124.3L900 130V228H878.5C857 228 814 228 771.2 228C728.3 228 685.7 228 642.8 228C600 228 557 228 514.2 228C471.3 228 428.7 228 385.8 228C343 228 300 228 257.2 228C214.3 228 171.7 228 128.8 228C86 228 43 228 21.5 228H0V98Z" fill="#4db6ac"/>
    <path d="M0 148L21.5 144C43 140 86 132 128.8 127.7C171.7 123.3 214.3 122.7 257.2 125.7C300 128.7 343 135.3 385.8 142.2C428.7 149 471.3 156 514.2 156.3C557 156.7 600 150.3 642.8 146.2C685.7 142 728.3 140 771.2 136.2C814 132.3 857 126.7 878.5 123.8L900 121V228H878.5C857 228 814 228 771.2 228C728.3 228 685.7 228 642.8 228C600 228 557 228 514.2 228C471.3 228 428.7 228 385.8 228C343 228 300 228 257.2 228C214.3 228 171.7 228 128.8 228C86 228 43 228 21.5 228H0V148Z" fill="#26a69a"/>
    <path d="M0 160L21.5 162.5C43 165 86 170 128.8 175.5C171.7 181 214.3 187 257.2 190.2C300 193.3 343 193.7 385.8 186.8C428.7 180 471.3 166 514.2 166.2C557 166.3 600 180.7 642.8 184.5C685.7 188.3 728.3 181.7 771.2 181C814 180.3 857 185.7 878.5 188.3L900 191V228H878.5C857 228 814 228 771.2 228C728.3 228 685.7 228 642.8 228C600 228 557 228 514.2 228C471.3 228 428.7 228 385.8 228C343 228 300 228 257.2 228C214.3 228 171.7 228 128.8 228C86 228 43 228 21.5 228H0V160Z" fill="#009688"/>
    </svg>
    