<svg width="900" height="228" viewBox="0 0 900 228" fill="none" xmlns="http://www.w3.org/2000/svg">
    <path d="M900 192.829L878.5 187.629C857 182.529 814 172.129 771.2 175.829C728.3 179.529 685.7 197.129 642.8 201.329C600 205.529 557 196.129 514.2 188.829C471.3 181.529 428.7 176.129 385.8 176.329C343 176.529 300 182.129 257.2 193.629C214.3 205.129 171.7 222.529 128.8 226.829C86 231.129 43 222.529 21.5 218.129L0 213.829V0.828766H21.5C43 0.828766 86 0.828766 128.8 0.828766C171.7 0.828766 214.3 0.828766 257.2 0.828766C300 0.828766 343 0.828766 385.8 0.828766C428.7 0.828766 471.3 0.828766 514.2 0.828766C557 0.828766 600 0.828766 642.8 0.828766C685.7 0.828766 728.3 0.828766 771.2 0.828766C814 0.828766 857 0.828766 878.5 0.828766H900V192.829Z" fill="#FA7268"/>
    <path d="M900 161.829L878.5 158.529C857 155.129 814 148.529 771.2 156.129C728.3 163.829 685.7 185.829 642.8 195.029C600 204.129 557 200.529 514.2 187.529C471.3 174.529 428.7 152.129 385.8 150.529C343 148.829 300 167.829 257.2 171.529C214.3 175.129 171.7 163.529 128.8 155.329C86 147.129 43 142.529 21.5 140.129L0 137.829V0.828934H21.5C43 0.828934 86 0.828934 128.8 0.828934C171.7 0.828934 214.3 0.828934 257.2 0.828934C300 0.828934 343 0.828934 385.8 0.828934C428.7 0.828934 471.3 0.828934 514.2 0.828934C557 0.828934 600 0.828934 642.8 0.828934C685.7 0.828934 728.3 0.828934 771.2 0.828934C814 0.828934 857 0.828934 878.5 0.828934H900V161.829Z" fill="#EF5F67"/>
    <path d="M900 130.829L878.5 132.629C857 134.529 814 138.129 771.2 138.829C728.3 139.529 685.7 137.129 642.8 140.129C600 143.129 557 151.529 514.2 151.029C471.3 150.529 428.7 141.129 385.8 135.829C343 130.529 300 129.129 257.2 129.329C214.3 129.529 171.7 131.129 128.8 126.329C86 121.529 43 110.129 21.5 104.529L0 98.8289V0.828888H21.5C43 0.828888 86 0.828888 128.8 0.828888C171.7 0.828888 214.3 0.828888 257.2 0.828888C300 0.828888 343 0.828888 385.8 0.828888C428.7 0.828888 471.3 0.828888 514.2 0.828888C557 0.828888 600 0.828888 642.8 0.828888C685.7 0.828888 728.3 0.828888 771.2 0.828888C814 0.828888 857 0.828888 878.5 0.828888H900V130.829Z" fill="#E34C67"/>
    <path d="M900 80.8289L878.5 84.8289C857 88.8289 814 96.8288 771.2 101.129C728.3 105.529 685.7 106.129 642.8 103.129C600 100.129 557 93.5288 514.2 86.6288C471.3 79.8288 428.7 72.8289 385.8 72.5289C343 72.1289 300 78.5288 257.2 82.6288C214.3 86.8288 171.7 88.8288 128.8 92.6288C86 96.5288 43 102.129 21.5 105.029L0 107.829V0.828857H21.5C43 0.828857 86 0.828857 128.8 0.828857C171.7 0.828857 214.3 0.828857 257.2 0.828857C300 0.828857 343 0.828857 385.8 0.828857C428.7 0.828857 471.3 0.828857 514.2 0.828857C557 0.828857 600 0.828857 642.8 0.828857C685.7 0.828857 728.3 0.828857 771.2 0.828857C814 0.828857 857 0.828857 878.5 0.828857H900V80.8289Z" fill="#D53867"/>
    <path d="M900 68.8289L878.5 66.3289C857 63.8289 814 58.8289 771.2 53.3289C728.3 47.8289 685.7 41.8288 642.8 38.6288C600 35.5288 557 35.1289 514.2 42.0289C471.3 48.8289 428.7 62.8288 385.8 62.6288C343 62.5288 300 48.1289 257.2 44.3289C214.3 40.5289 171.7 47.1289 128.8 47.8289C86 48.5289 43 43.1289 21.5 40.5289L0 37.8289V0.828857H21.5C43 0.828857 86 0.828857 128.8 0.828857C171.7 0.828857 214.3 0.828857 257.2 0.828857C300 0.828857 343 0.828857 385.8 0.828857C428.7 0.828857 471.3 0.828857 514.2 0.828857C557 0.828857 600 0.828857 642.8 0.828857C685.7 0.828857 728.3 0.828857 771.2 0.828857C814 0.828857 857 0.828857 878.5 0.828857H900V68.8289Z" fill="#C62368"/>
    </svg>
    